HIERARCHY
ROOT Hips
{
  OFFSET 51.2403 100.628 15.7654
  CHANNELS 6 Xposition Yposition Zposition Zrotation Xrotation Yrotation
  JOINT spine
  {
    OFFSET 0 8.81704 0.507024
    CHANNELS 3 Zrotation Xrotation Yrotation
    JOINT spine1
    {
      OFFSET 0 10.7766 0
      CHANNELS 3 Zrotation Xrotation Yrotation
      JOINT spine2
      {
        OFFSET 0 10.3259 0
        CHANNELS 3 Zrotation Xrotation Yrotation
        JOINT Neck
        {
          OFFSET 0 26.511 1.26395
          CHANNELS 3 Zrotation Xrotation Yrotation
          JOINT Head
          {
            OFFSET 0 8.00966 0
            CHANNELS 3 Zrotation Xrotation Yrotation
            End Site
            {
              OFFSET 0 19.3879 -6.39386
            }
          }
        }
        JOINT RightShoulder
        {
          OFFSET -4.34795 11.1512 -0.605422
          CHANNELS 3 Zrotation Xrotation Yrotation
          JOINT RightArm
          {
            OFFSET 0 14.6258 0
            CHANNELS 3 Zrotation Xrotation Yrotation
            JOINT RightArmRoll
            {
              OFFSET 0 7.3834 0
              CHANNELS 3 Zrotation Xrotation Yrotation
              JOINT RightForeArm
              {
                OFFSET 0 21.5052 0
                CHANNELS 3 Zrotation Xrotation Yrotation
                JOINT RightForeArmRoll
                {
                  OFFSET 0 8.28532 0
                  CHANNELS 3 Zrotation Xrotation Yrotation
                  JOINT RightHand
                  {
                    OFFSET 0 16.6268 0
                    CHANNELS 3 Zrotation Xrotation Yrotation
                    End Site
                    {
                      OFFSET 0 0 0
                    }
                  }
                }
              }
            }
          }
        }
        JOINT LeftShoulder
        {
          OFFSET 4.34795 11.1512 -0.605422
          CHANNELS 3 Zrotation Xrotation Yrotation
          JOINT LeftArm
          {
            OFFSET 0 14.6258 0
            CHANNELS 3 Zrotation Xrotation Yrotation
            JOINT LeftArmRoll
            {
              OFFSET 0 7.3834 0
              CHANNELS 3 Zrotation Xrotation Yrotation
              JOINT LeftForeArm
              {
                OFFSET 0 21.5052 0
                CHANNELS 3 Zrotation Xrotation Yrotation
                JOINT LeftForeArmRoll
                {
                  OFFSET 0 8.28532 0
                  CHANNELS 3 Zrotation Xrotation Yrotation
                  JOINT LeftHand
                  {
                    OFFSET 0 16.6268 0
                    CHANNELS 3 Zrotation Xrotation Yrotation
                    End Site
                    {
                      OFFSET 0 0 0
                    }
                  }
                }
              }
            }
          }
        }
      }
    }
  }
  JOINT RightUpLeg
  {
    OFFSET -7.8151 -1.43309 -1.20217
    CHANNELS 3 Zrotation Xrotation Yrotation
    JOINT RightUpLegRoll
    {
      OFFSET 0 19.4959 0
      CHANNELS 3 Zrotation Xrotation Yrotation
      JOINT RightLeg
      {
        OFFSET 0 -24.1427 0
        CHANNELS 3 Zrotation Xrotation Yrotation
        JOINT RightLegRoll
        {
          OFFSET 0 24.2217 0
          CHANNELS 3 Zrotation Xrotation Yrotation
          JOINT RightFoot
          {
            OFFSET 0 20.1605 0
            CHANNELS 3 Zrotation Xrotation Yrotation
            JOINT RightToeBase
            {
              OFFSET 0 16.8532 0
              CHANNELS 3 Zrotation Xrotation Yrotation
              End Site
              {
                OFFSET 0.00714343 8.16187 -0.94078
              }
            }
          }
        }
      }
    }
  }
  JOINT LeftUpLeg
  {
    OFFSET 7.8151 -1.43309 -1.20217
    CHANNELS 3 Zrotation Xrotation Yrotation
    JOINT LeftUpLegRoll
    {
      OFFSET 0 19.496 0
      CHANNELS 3 Zrotation Xrotation Yrotation
      JOINT LeftLeg
      {
        OFFSET 0 24.1426 0
        CHANNELS 3 Zrotation Xrotation Yrotation
        JOINT LeftLegRoll
        {
          OFFSET 0 24.4456 0
          CHANNELS 3 Zrotation Xrotation Yrotation
          JOINT LeftFoot
          {
            OFFSET 0 19.9366 0
            CHANNELS 3 Zrotation Xrotation Yrotation
            JOINT LeftToeBase
            {
              OFFSET 0 16.8532 0
              CHANNELS 3 Zrotation Xrotation Yrotation
              End Site
              {
                OFFSET -0.0320138 8.16187 -0.94078
              }
            }
          }
        }
      }
    }
  }
}
MOTION
Frames: 7
Frame Time: 0.00208333
50.9542 100.626 15.2923 0.444272 -3.31875 1.93208 0.0704649 -1.87186 -0.050248 0.139479 0.259027 -0.107349 0.140824 1.9041 -0.109719 -0.989116 27.1678 2.15819 -4.69926 -6.98787 0.99454 66.5331 -3.39932 -2.75496 105.523 15.5685 13.165 2.5081e-005 3.86157e-006 -3.8081e-007 14.2384 0.109667 -0.331273 -6.74573e-006 -1.39401e-006 -3.01617 8.02892 -4.95146 0.69769 -62.6863 -3.88992 2.72956 -106.903 12.5374 -10.0348 9.22074e-006 5.3975e-007 1.06483e-006 -8.85798 3.73277 0.932033 4.4387e-006 -5.71451e-006 3.00281 -8.02905 -4.95148 -0.697678 178.525 -2.78439 -0.0108462 180 7.01538e-015 178.883 177.931 4.99389 179.78 1.13523e-006 -4.47681e-006 0.0380235 -18.3158 67.5249 19.1511 8.1366 25.2342 -3.4856 -177.745 -2.00716 2.50869 4.54188e-006 -4.6773e-006 -1.13577 -2.09978 -7.58817 0.181961 7.01402e-008 2.85013e-007 -0.120381 19.2523 68.7161 -20.1316 -8.15168 25.4837 3.14398 
50.9651 100.627 15.2612 0.443954 -3.31776 1.93158 0.0704165 -1.8729 -0.0501974 0.139214 0.256965 -0.107287 0.140558 1.90203 -0.109653 -0.981048 27.17 2.15613 -4.71007 -6.97756 0.993987 66.536 -3.40101 -2.75609 105.518 15.561 13.1676 2.5081e-005 3.86157e-006 -3.8081e-007 14.2382 0.108691 -0.328591 -6.74573e-006 -1.39401e-006 -3.01622 8.02892 -4.95146 0.69769 -62.6793 -3.89201 2.73026 -106.906 12.5183 -10.0471 9.22074e-006 5.3975e-007 1.06483e-006 -8.85266 3.73356 0.932255 4.4387e-006 -5.71451e-006 3.00281 -8.02905 -4.95148 -0.697678 178.525 -2.7851 -0.0119919 180 7.01538e-015 178.883 177.934 4.99423 179.78 1.13523e-006 -4.47681e-006 0.0380235 -18.3156 67.5247 19.1508 8.1366 25.2342 -3.4856 -177.746 -2.00721 2.51257 4.54188e-006 -4.6773e-006 -1.13577 -2.09564 -7.58754 0.182437 7.01402e-008 2.85013e-007 -0.120335 19.2528 68.7166 -20.1321 -8.15171 25.4842 3.14328 
50.9516 100.627 15.2667 0.443681 -3.31683 1.93097 0.0703757 -1.87385 -0.0501125 0.138963 0.255049 -0.107182 0.140305 1.90012 -0.109543 -0.972915 27.1715 2.15404 -4.72125 -6.96697 0.993394 66.5378 -3.40301 -2.7573 105.514 15.5541 13.1701 2.5081e-005 3.86157e-006 -3.8081e-007 14.2376 0.107239 -0.326117 -6.74573e-006 -1.39401e-006 -3.01629 8.02892 -4.95146 0.69769 -62.6719 -3.89412 2.73094 -106.91 12.499 -10.0591 9.22074e-006 5.3975e-007 1.06483e-006 -8.84752 3.73471 0.932499 4.4387e-006 -5.71451e-006 3.00281 -8.02905 -4.95148 -0.697678 178.525 -2.7861 -0.0134441 180 7.01538e-015 178.883 177.937 4.99484 179.78 1.13523e-006 -4.47681e-006 0.0380235 -18.3152 67.5243 19.1505 8.1366 25.2342 -3.4856 -177.748 -2.00786 2.51665 4.54188e-006 -4.6773e-006 -1.13577 -2.09134 -7.58596 0.182925 7.01402e-008 2.85013e-007 -0.120266 19.2529 68.7167 -20.1323 -8.15173 25.4845 3.14275 
50.9347 100.628 15.3141 0.443438 -3.31594 1.93029 0.07034 -1.87476 -0.0500038 0.138722 0.253235 -0.107045 0.140062 1.8983 -0.109402 -0.964736 27.1726 2.15194 -4.73269 -6.95617 0.992773 66.5387 -3.40522 -2.75855 105.511 15.5476 13.1727 2.5081e-005 3.86157e-006 -3.8081e-007 14.2368 0.105453 -0.323789 -6.74573e-006 -1.39401e-006 -3.01638 8.02892 -4.95146 0.69769 -62.6642 -3.89625 2.7316 -106.914 12.4795 -10.0708 9.22074e-006 5.3975e-007 1.06483e-006 -8.8425 3.73611 0.932758 4.4387e-006 -5.71451e-006 3.00281 -8.02905 -4.95148 -0.697678 178.525 -2.7873 -0.0151109 180 7.01538e-015 178.883 177.94 4.99565 179.78 1.13523e-006 -4.47681e-006 0.0380235 -18.3148 67.5238 19.1501 8.1366 25.2342 -3.4856 -177.75 -2.00895 2.52087 4.54188e-006 -4.6773e-006 -1.13577 -2.0869 -7.58373 0.183422 7.01402e-008 2.85013e-007 -0.120181 19.2529 68.7166 -20.1322 -8.15175 25.4847 3.14235 
50.9429 100.628 15.3016 0.443213 -3.31508 1.92958 0.0703073 -1.87564 -0.0498814 0.138486 0.251479 -0.106891 0.139825 1.89655 -0.109244 -0.956532 27.1733 2.14984 -4.74427 -6.94525 0.992137 66.5391 -3.40756 -2.75983 105.509 15.5415 13.1753 2.5081e-005 3.86157e-006 -3.8081e-007 14.2358 0.103478 -0.321544 -6.74573e-006 -1.39401e-006 -3.01647 8.02892 -4.95146 0.69769 -62.6563 -3.89838 2.73225 -106.918 12.4599 -10.0825 9.22074e-006 5.3975e-007 1.06483e-006 -8.83756 3.73765 0.933026 4.4387e-006 -5.71451e-006 3.00281 -8.02905 -4.95148 -0.697678 178.525 -2.78861 -0.0169003 180 7.01538e-015 178.883 177.944 4.99658 179.779 1.13523e-006 -4.47681e-006 0.0380235 -18.3144 67.5232 19.1496 8.1366 25.2342 -3.4856 -177.752 -2.01027 2.52516 4.54188e-006 -4.6773e-006 -1.13577 -2.0824 -7.58111 0.183923 7.01402e-008 2.85013e-007 -0.120088 19.2526 68.7164 -20.1319 -8.15175 25.4848 3.14201 
50.9485 100.627 15.2966 0.442993 -3.31423 1.92885 0.0702754 -1.87651 -0.0497555 0.138252 0.249737 -0.106733 0.139588 1.89481 -0.109082 -0.94832 27.174 2.14773 -4.75589 -6.9343 0.991496 66.5394 -3.40993 -2.76112 105.507 15.5354 13.1779 2.5081e-005 3.86157e-006 -3.8081e-007 14.2347 0.101454 -0.31932 -6.74573e-006 -1.39401e-006 -3.01657 8.02892 -4.95146 0.69769 -62.6483 -3.90052 2.7329 -106.922 12.4403 -10.0941 9.22074e-006 5.3975e-007 1.06483e-006 -8.83264 3.73924 0.933297 4.4387e-006 -5.71451e-006 3.00281 -8.02905 -4.95148 -0.697678 178.525 -2.78994 -0.0187204 180 7.01538e-015 178.883 177.948 4.99754 179.779 1.13523e-006 -4.47681e-006 0.0380235 -18.314 67.5227 19.1491 8.1366 25.2342 -3.4856 -177.754 -2.01165 2.52948 4.54188e-006 -4.6773e-006 -1.13577 -2.07787 -7.5784 0.184425 7.01402e-008 2.85013e-007 -0.119992 19.2524 68.7161 -20.1316 -8.15176 25.4849 3.14169 
50.9434 100.627 15.3017 0.442763 -3.31336 1.92814 0.0702419 -1.87739 -0.0496365 0.138015 0.247967 -0.106583 0.13935 1.89304 -0.108928 -0.940122 27.1748 2.14562 -4.76744 -6.92342 0.990863 66.5399 -3.41224 -2.76239 105.505 15.5291 13.1805 2.5081e-005 3.86157e-006 -3.8081e-007 14.2337 0.0995259 -0.317054 -6.74573e-006 -1.39401e-006 -3.01667 8.02892 -4.95146 0.69769 -62.6405 -3.90266 2.73356 -106.926 12.4207 -10.1058 9.22074e-006 5.3975e-007 1.06483e-006 -8.82768 3.74075 0.933562 4.4387e-006 -5.71451e-006 3.00281 -8.02905 -4.95148 -0.697678 178.525 -2.79122 -0.0204792 180 7.01538e-015 178.883 177.952 4.99844 179.779 1.13523e-006 -4.47681e-006 0.0380235 -18.3135 67.5221 19.1487 8.1366 25.2342 -3.4856 -177.755 -2.01292 2.53375 4.54188e-006 -4.6773e-006 -1.13577 -2.07339 -7.57589 0.184925 7.01402e-008 2.85013e-007 -0.119901 19.2522 68.7159 -20.1314 -8.15177 25.4851 3.14133 
